<svg width="669" height="129" viewBox="0 0 669 129" fill="none" xmlns="http://www.w3.org/2000/svg">
<path d="M101.898 57.7922C96.3928 54.4675 90.5241 52.026 84.2918 50.4675C78.0595 48.8052 70.5807 47.6623 61.8555 47.039C61.1284 46.9351 60.4013 46.8831 59.6742 46.8831C59.051 46.7792 58.4278 46.7273 57.8045 46.7273C55.6232 46.7273 54.5326 47.6104 54.5326 49.3766C54.5326 50.4156 55.1039 51.1429 56.2465 51.5584C57.4929 51.8701 59.1549 52.1299 61.2323 52.3377C65.2833 52.8571 69.542 53.4805 74.0085 54.2078C78.475 54.8312 82.8376 55.8182 87.0963 57.1688C91.355 58.5195 95.1983 60.4935 98.6261 63.0909C102.158 65.6883 104.91 69.1169 106.884 73.3766C108.961 77.6364 110 82.987 110 89.4286C110 96.5974 108.338 102.623 105.014 107.506C101.69 112.286 97.1719 116.13 91.4589 119.039C85.8499 121.844 79.4098 123.87 72.1388 125.117C64.9717 126.364 57.5448 126.987 49.8584 126.987C40.9254 127.091 32.0444 126.571 23.2153 125.429C14.4901 124.39 6.75165 123.039 0 121.377L4.36261 66.5195C6.75165 68.2857 9.60812 70.2078 12.932 72.2857C16.2559 74.2597 20.7743 76.0779 26.4873 77.7403C32.2002 79.4026 39.7309 80.7013 49.0793 81.6364C49.5987 81.7403 50.0661 81.7922 50.4816 81.7922C51.0009 81.7922 51.4684 81.7922 51.8839 81.7922C53.0264 81.7922 53.8574 81.6364 54.3768 81.3247C55 81.013 55.3116 80.3377 55.3116 79.2987C55.3116 78.1558 54.7923 77.4286 53.7535 77.1169C52.8187 76.8052 51.3126 76.4935 49.2351 76.1818C43.6261 75.5584 38.017 74.6753 32.4079 73.5325C26.9027 72.3896 21.865 70.6234 17.2946 68.2338C12.7243 65.8442 9.03683 62.5195 6.23229 58.2597C3.53163 54 2.1813 48.4416 2.1813 41.5844C2.1813 31.8182 4.46648 24.0779 9.03683 18.3636C13.711 12.5454 19.9953 8.38961 27.8895 5.8961C35.7838 3.2987 44.6128 2 54.3768 2C62.5826 2 71.152 2.77922 80.085 4.33766C89.0179 5.79221 97.847 7.81818 106.572 10.4156L101.898 57.7922Z" fill="#3A74EA"/>
<path d="M150.452 8.44704L146.39 3.51146C144.892 1.691 142.105 1.68833 140.603 3.50593L136.521 8.44703C140.333 10.3248 146.657 10.3248 150.452 8.44704Z" fill="#1E1E1E"/>
<path d="M118 123.698C125.093 130.732 161.836 130.802 169 123.698L169 107.529C159.141 113.173 127.684 113.073 118 107.529L118 123.698Z" fill="#3A74EA"/>
<path fill-rule="evenodd" clip-rule="evenodd" d="M169 32.7777C169 31.6186 168.597 30.4954 167.861 29.6004L150.452 8.44704C146.657 10.3248 140.333 10.3248 136.521 8.44703L119.145 29.478C118.405 30.3742 118 31.5003 118 32.6627L118 33.8155C120.212 36.0422 126.601 36.2895 129.74 34.5573C130.348 34.2221 131.152 34.2221 131.76 34.5573C134.507 36.0731 139.743 36.0731 142.49 34.5573C143.098 34.2221 143.902 34.2221 144.51 34.5573C147.257 36.0731 152.493 36.0731 155.24 34.5573C155.848 34.2222 156.652 34.2222 157.26 34.5573C160.399 36.2895 166.788 36.0422 169 33.8155L169 32.7777Z" fill="#3A74EA"/>
<path d="M169 107.529L169 61.8893L169 33.8155C166.788 36.0422 160.399 36.2895 157.26 34.5573C156.652 34.2222 155.848 34.2222 155.24 34.5573C152.493 36.0731 147.257 36.0731 144.51 34.5573C143.902 34.2221 143.098 34.2221 142.49 34.5573C139.743 36.0731 134.507 36.0731 131.76 34.5573C131.152 34.2221 130.348 34.2221 129.74 34.5573C126.601 36.2895 120.212 36.0422 118 33.8155L118 61.809L118 107.529C127.684 113.073 159.141 113.173 169 107.529Z" fill="#3A74EA"/>
<path d="M150.452 8.44702L146.39 3.51144C144.892 1.69098 142.105 1.68831 140.603 3.50591L136.521 8.44701C140.333 10.3248 146.657 10.3248 150.452 8.44702Z" fill="#1E1E1E"/>
<path d="M143.493 10.8553C140.857 10.8553 138.161 10.3692 136.079 9.34363L134.945 8.78503L135.751 7.81042L139.833 2.86902C141.735 0.566847 145.264 0.570165 147.162 2.87585L151.224 7.8114L152.025 8.78406L150.895 9.34363C148.821 10.37 146.128 10.8553 143.493 10.8553Z" stroke="white" stroke-width="2"/>
<path d="M224.438 125.993H177V3.00696H233.063L243.764 47.7292H245.201L244.562 3.00696H292V125.993H240.25L225.076 68.4931H223.639L224.438 125.993Z" fill="#3A74EA"/>
<path d="M430 126.29H378L376.395 111.525H353.605L352 126.29H300L331.778 2.70996H398.222L430 126.29ZM360.667 48.4507L358.901 63.8581H371.099L369.333 48.4507H360.667Z" fill="#3A74EA"/>
<path d="M611.944 3.15869C627.645 3.15869 640.338 6.26995 650.024 12.4907C659.709 18.6095 665.367 27.1249 666.999 38.0366C667.406 40.6881 667.713 44.3594 667.917 49.0503C668.222 53.6393 668.375 58.6871 668.375 64.1938C668.375 70.0067 668.222 75.31 667.917 80.103C667.713 84.896 667.406 88.7203 666.999 91.5757C665.367 102.284 659.709 110.697 650.024 116.816C640.338 122.833 627.645 125.841 611.944 125.841C596.243 125.841 583.55 122.833 573.865 116.816C564.281 110.799 558.622 102.487 556.889 91.8813C556.661 90.286 556.45 88.3882 556.254 86.188C554.367 86.4532 552.47 86.5815 550.601 86.5815C547.907 86.5815 545.158 86.3136 542.458 85.7554C542.291 88.0095 542.095 89.9498 541.863 91.5757C540.231 102.284 534.573 110.697 524.887 116.816C515.201 122.833 502.508 125.841 486.807 125.841C471.106 125.841 458.412 122.833 448.726 116.816C439.142 110.799 433.484 102.487 431.75 91.8813C431.343 89.0259 430.986 85.2015 430.68 80.4087C430.476 75.5137 430.375 70.2616 430.375 64.6528C430.375 59.248 430.476 54.2507 430.68 49.6616C430.986 44.9707 431.343 41.2994 431.75 38.6479C433.484 27.4303 439.194 18.7114 448.879 12.4907C458.565 6.26996 471.208 3.15869 486.807 3.15869C502.508 3.15872 515.201 6.26999 524.887 12.4907C534.573 18.6095 540.231 27.1248 541.863 38.0366C542.271 40.6881 542.577 44.3594 542.781 49.0503C542.954 51.655 543.076 54.4077 543.151 57.3081C543.396 57.8518 543.607 58.4147 543.775 58.9956C544.07 59.2194 544.421 59.4698 544.829 59.7271C545.759 60.3147 547.816 61.0482 550.601 61.0483C552.733 61.0483 554.438 60.6171 555.539 60.1519C555.58 56.4458 555.673 52.9489 555.819 49.6616C556.125 44.9708 556.481 41.2993 556.889 38.6479C558.622 27.4303 564.333 18.7115 574.018 12.4907C583.704 6.27005 596.345 3.15875 611.944 3.15869ZM486.806 36.2827C483.535 36.2828 481.899 37.8905 481.899 41.105V59.5923H464.639C461.425 59.5924 459.818 61.2284 459.818 64.4995C459.818 67.7709 461.425 69.4066 464.639 69.4067H481.899V87.895C481.899 91.1093 483.535 92.7162 486.806 92.7163C490.078 92.7163 491.713 91.1094 491.713 87.895V69.4067H511.428C514.643 69.4067 516.25 67.771 516.25 64.4995C516.25 61.2282 514.643 59.5923 511.428 59.5923H491.713V41.105C491.713 37.8904 490.078 36.2827 486.806 36.2827ZM611.944 36.2827C608.673 36.2827 607.037 37.8896 607.037 41.104V59.5923H589.777C586.563 59.5924 584.956 61.2291 584.956 64.5005C584.956 67.7715 586.563 69.4076 589.777 69.4077H607.037V87.894C607.037 91.1086 608.672 92.7163 611.944 92.7163C615.215 92.7162 616.851 91.1085 616.851 87.894V69.4077H636.565C639.779 69.4077 641.387 67.7717 641.387 64.5005C641.387 61.229 639.779 59.5923 636.565 59.5923H616.851V41.104C616.851 37.8897 615.215 36.2828 611.944 36.2827Z" fill="#3A74EA"/>
</svg>
