<svg preserveAspectRatio="none" width="100%" height="100%" overflow="visible" style="display: block;" viewBox="0 0 13.3408 11.8899" fill="none" xmlns="http://www.w3.org/2000/svg">
<path id="Vector" d="M1.49414 0C2.74733 0.106735 4.59359 0.692692 5.81348 1.35254C6.03348 1.47254 6.16699 1.69296 6.16699 1.94629V11.2197C6.16687 11.6929 5.68714 12.0197 5.25391 11.8398C4.01405 11.3199 2.47417 10.8664 1.38086 10.7197L1.17383 10.6934C0.527215 10.6134 8.74734e-05 10.0197 0 9.37305V1.44629C0 0.646289 0.647266 0 1.44727 0H1.49414ZM11.8936 0C12.6936 0 13.3408 0.646289 13.3408 1.44629V9.37305C13.3407 10.0197 12.8136 10.6134 12.167 10.6934L11.9609 10.7197C10.8676 10.8664 9.32691 11.3198 8.08691 11.8398C7.65372 12.0195 7.17395 11.6929 7.17383 11.2197V1.94629C7.17383 1.69962 7.31418 1.47254 7.53418 1.35254C8.75407 0.692692 10.6003 0.106733 11.8535 0H11.8936ZM2.00684 5.37305C1.73365 5.37322 1.50684 5.59982 1.50684 5.87305C1.50692 6.15286 1.7337 6.37288 2.00684 6.37305H4.00684C4.28012 6.37305 4.50675 6.15297 4.50684 5.87305C4.50684 5.59971 4.28017 5.37305 4.00684 5.37305H2.00684ZM2.00684 3.37305C1.73365 3.37322 1.50684 3.59982 1.50684 3.87305C1.50692 4.15286 1.7337 4.37288 2.00684 4.37305H3.50684C3.78012 4.37305 4.00675 4.15297 4.00684 3.87305C4.00684 3.59971 3.78017 3.37305 3.50684 3.37305H2.00684Z" fill="var(--fill-0, #D9E3F7)"/>
</svg>
