<svg width="300" height="300" viewBox="0 0 300 300" fill="none" xmlns="http://www.w3.org/2000/svg">
<path d="M71.1357 69.6807C90.9278 69.6807 106.928 73.6014 119.138 81.4424C131.347 89.1548 138.48 99.8877 140.536 113.642C141.05 116.984 141.436 121.612 141.693 127.524C141.913 130.812 142.067 134.287 142.161 137.948C142.468 138.63 142.732 139.335 142.942 140.062C143.315 140.344 143.757 140.659 144.27 140.983C145.442 141.724 148.035 142.65 151.546 142.65C154.227 142.65 156.373 142.109 157.76 141.524C157.812 136.852 157.93 132.444 158.114 128.3C158.5 122.387 158.95 117.76 159.464 114.418C161.649 100.279 168.846 89.2882 181.055 81.4473C193.264 73.6064 209.201 69.6856 228.864 69.6855C248.656 69.6856 264.657 73.6063 276.866 81.4473C289.075 89.1597 296.208 99.8928 298.265 113.646C298.779 116.989 299.165 121.617 299.422 127.529C299.807 133.313 300 139.676 300 146.617C300 153.944 299.807 160.629 299.422 166.67C299.165 172.711 298.779 177.532 298.265 181.131C296.208 194.627 289.075 205.232 276.866 212.944C264.657 220.528 248.656 224.32 228.864 224.32C209.072 224.32 193.072 220.528 180.862 212.944C168.782 205.36 161.649 194.885 159.464 181.517C159.177 179.505 158.91 177.113 158.663 174.339C156.286 174.672 153.899 174.835 151.546 174.835C148.152 174.835 144.688 174.498 141.286 173.795C141.077 176.634 140.829 179.078 140.536 181.126C138.48 194.623 131.347 205.227 119.138 212.939C106.928 220.523 90.9278 224.315 71.1357 224.315C51.3437 224.315 35.3432 220.523 23.1338 212.939C11.0531 205.356 3.92025 194.88 1.73535 181.512C1.22128 177.913 0.771296 173.092 0.385742 167.051C0.128705 160.881 0 154.26 0 147.19C6.94354e-06 140.378 0.128709 134.079 0.385742 128.295C0.771288 122.382 1.2213 117.755 1.73535 114.413C3.92018 100.274 11.117 89.2834 23.3262 81.4424C35.5355 73.6014 51.4722 69.6807 71.1357 69.6807ZM228.864 110.764C224.741 110.764 222.679 112.828 222.679 116.956V140.932H200.921C196.869 140.932 194.843 142.956 194.843 147.003C194.843 151.05 196.869 153.074 200.921 153.074H222.679V177.047C222.679 181.175 224.741 183.239 228.864 183.239C232.988 183.239 235.05 181.175 235.05 177.047V153.074H259.9C263.952 153.074 265.978 151.05 265.979 147.003C265.978 142.956 263.952 140.932 259.9 140.932H235.05V116.956C235.05 112.828 232.987 110.764 228.864 110.764ZM71.1357 110.76C67.012 110.76 64.9502 112.824 64.9502 116.952V140.927H43.1924C39.1405 140.927 37.1143 142.951 37.1143 146.998C37.1144 151.045 39.1406 153.069 43.1924 153.069H64.9502V177.043C64.9503 181.171 67.0121 183.235 71.1357 183.235C75.2593 183.235 77.3211 181.171 77.3213 177.043V153.069H102.172C106.224 153.069 108.25 151.045 108.25 146.998C108.25 142.951 106.224 140.927 102.172 140.927H77.3213V116.952C77.3212 112.824 75.2594 110.76 71.1357 110.76Z" fill="#3A74EA"/>
</svg>
